<?xml version="1.0"?>
<svg xmlns="http://www.w3.org/2000/svg" viewBox="0 0 50 50" enable-background="new 0 0 50 50">
    <path style="text-indent:0;text-align:start;line-height:normal;text-transform:none;block-progression:tb;-inkscape-font-specification:Bitstream Vera Sans" d="M 3 8 C 1.3545455 8 0 9.3545455 0 11 L 0 35 C 0 36.645455 1.3545455 38 3 38 L 7.09375 38 C 7.5685656 40.834783 10.035015 43 13 43 C 15.964985 43 18.431434 40.834783 18.90625 38 L 28.1875 38 C 28.91385 38 29.559175 37.683879 30.0625 37.21875 C 30.578922 37.678187 31.238971 38 32 38 L 33.09375 38 C 33.568566 40.834783 36.035015 43 39 43 C 42.301864 43 45 40.301864 45 37 C 45 33.698136 42.301864 31 39 31 C 36.035015 31 33.568566 33.165217 33.09375 36 L 32 36 C 31.833333 36 31.561615 35.874115 31.34375 35.65625 C 31.125885 35.438385 31 35.166667 31 35 L 31 16 C 31 15.833333 31.125885 15.561615 31.34375 15.34375 C 31.561615 15.125885 31.833333 15 32 15 L 40 15 C 40.823399 15 41.972579 15.925528 42.6875 16.8125 L 42.8125 17 L 38 17 C 36.4 17 35 18.293939 35 20 L 35 24 C 35 24.833333 35.374115 25.561615 35.90625 26.09375 C 36.438385 26.625885 37.166667 27 38 27 L 48 27 L 48 35 C 48 35.166667 47.874115 35.438385 47.65625 35.65625 C 47.438385 35.874115 47.166667 36 47 36 L 45 36 L 45 37 L 45 38 L 47 38 C 47.833333 38 48.561615 37.625885 49.09375 37.09375 C 49.625885 36.561615 50 35.833333 50 35 L 50 25.40625 C 50 24.28174 49.572192 23.251873 49.1875 22.46875 C 48.802808 21.685627 48.40625 21.125 48.40625 21.125 L 48.40625 21.09375 L 44.3125 15.59375 L 44.28125 15.59375 L 44.28125 15.5625 C 43.39491 14.454575 41.971429 13 40 13 L 32 13 C 31.642361 13 31.311741 13.066769 31 13.1875 L 31 11 C 31 9.3545455 29.645455 8 28 8 L 3 8 z M 3 10 L 28 10 C 28.554545 10 29 10.445455 29 11 L 29 16 L 29 35 L 29 35.1875 C 29 35.654167 28.654167 36 28.1875 36 L 18.90625 36 C 18.431434 33.165217 15.964985 31 13 31 C 10.035015 31 7.5685656 33.165217 7.09375 36 L 3 36 C 2.4454545 36 2 35.554545 2 35 L 2 11 C 2 10.445455 2.4454545 10 3 10 z M 38 19 L 44.3125 19 L 46.78125 22.28125 L 46.8125 22.3125 C 46.83268 22.34158 47.101885 22.724149 47.40625 23.34375 C 47.659125 23.85853 47.793194 24.471743 47.875 25 L 38 25 C 37.833333 25 37.561615 24.874115 37.34375 24.65625 C 37.125885 24.438385 37 24.166667 37 24 L 37 20 C 37 19.506061 37.6 19 38 19 z M 5 20 L 5 25.8125 L 6.3125 25.8125 L 6.3125 23.40625 L 8.6875 23.40625 L 8.6875 22.40625 L 6.3125 22.40625 L 6.3125 21.09375 L 9 21.09375 L 9 20 L 5 20 z M 10 20 L 10 25.59375 L 11.09375 25.59375 L 11.09375 23.40625 L 12.40625 23.40625 C 13.30625 23.40625 13.30625 24.1 13.40625 25 C 13.40625 25.2 13.4 25.39375 13.5 25.59375 L 14.8125 25.59375 C 14.6125 25.39375 14.59375 24.69375 14.59375 24.59375 C 14.59375 23.19375 14.0125 23 13.8125 23 C 14.1125 22.9 14.6875 22.49375 14.6875 21.59375 C 14.6875 20.29375 13.5 20 13 20 L 10 20 z M 16 20 L 16 25.8125 L 20.3125 25.8125 L 20.3125 24.6875 L 17.1875 24.6875 L 17.1875 23.3125 L 20 23.3125 L 20 22.3125 L 17.1875 22.3125 L 17.1875 21.09375 L 20.1875 21.09375 L 20.1875 20 L 16 20 z M 21.6875 20 L 21.6875 25.8125 L 26 25.8125 L 26 24.6875 L 22.90625 24.6875 L 22.90625 23.3125 L 25.6875 23.3125 L 25.6875 22.3125 L 22.90625 22.3125 L 22.90625 21.09375 L 25.90625 21.09375 L 25.90625 20 L 21.6875 20 z M 11.1875 21 L 12.59375 21 C 12.89375 21 13.5 21.1125 13.5 21.8125 C 13.5 22.6125 12.89375 22.59375 12.59375 22.59375 L 11.1875 22.59375 L 11.1875 21 z M 13 33 C 15.220984 33 17 34.779016 17 37 C 17 39.220984 15.220984 41 13 41 C 10.779016 41 9 39.220984 9 37 C 9 34.779016 10.779016 33 13 33 z M 39 33 C 41.220984 33 43 34.779016 43 37 C 43 39.220984 41.220984 41 39 41 C 36.779016 41 35 39.220984 35 37 C 35 34.779016 36.779016 33 39 33 z" overflow="visible" enable-background="accumulate" font-family="Bitstream Vera Sans"/>
</svg>
