<?xml version="1.0"?>
<svg xmlns="http://www.w3.org/2000/svg" viewBox="0 0 50 50">
    <path style="text-indent:0;text-align:start;line-height:normal;text-transform:none;block-progression:tb;-inkscape-font-specification:Bitstream Vera Sans" d="M 7.90625 1.96875 A 1.0001 1.0001 0 0 0 7.78125 2 A 1.0001 1.0001 0 0 0 7 3 L 7 11 L 7 12 L 8 12 L 16 12 A 1.0001 1.0001 0 1 0 16 10 L 10.3125 10 C 14.099939 6.2944876 19.276228 4 25 4 C 36.609534 4 46 13.390466 46 25 C 46 36.609534 36.609534 46 25 46 C 13.390466 46 4 36.609534 4 25 C 4 21.528666 4.8549061 18.257249 6.34375 15.375 L 4.5625 14.46875 C 2.9313439 17.626501 2 21.205334 2 25 C 2 37.690466 12.309534 48 25 48 C 37.690466 48 48 37.690466 48 25 C 48 12.309534 37.690466 2 25 2 C 18.771937 2 13.140553 4.5036575 9 8.53125 L 9 3 A 1.0001 1.0001 0 0 0 7.90625 1.96875 z M 25 5 C 24.447715 5 24 5.4477153 24 6 C 24 6.5522847 24.447715 7 25 7 C 25.552285 7 26 6.5522847 26 6 C 26 5.4477153 25.552285 5 25 5 z M 34.5 7.53125 C 33.947715 7.53125 33.5 7.9789653 33.5 8.53125 C 33.5 9.0835348 33.947715 9.53125 34.5 9.53125 C 35.052285 9.53125 35.5 9.0835348 35.5 8.53125 C 35.5 7.9789653 35.052285 7.53125 34.5 7.53125 z M 41.46875 14.5 C 40.916465 14.5 40.46875 14.947715 40.46875 15.5 C 40.46875 16.052285 40.916465 16.5 41.46875 16.5 C 42.021034 16.5 42.46875 16.052285 42.46875 15.5 C 42.46875 14.947715 42.021034 14.5 41.46875 14.5 z M 18.375 16.90625 C 15.602 16.90625 13.626 18.7145 13.625 21.3125 L 13.625 21.34375 L 15.6875 21.34375 L 15.6875 21.3125 C 15.6875 19.8085 16.72825 18.8125 18.28125 18.8125 C 19.73625 18.8125 20.84375 19.7735 20.84375 21.0625 C 20.84375 22.0975 20.385 22.8495 18.5 24.8125 L 13.75 29.75 L 13.75 31.34375 L 23.25 31.34375 L 23.25 29.375 L 16.78125 29.375 L 16.78125 29.21875 L 19.9375 26.03125 C 22.3005 23.63925 23 22.4315 23 20.9375 C 23 18.6135 21.051 16.90625 18.375 16.90625 z M 31.59375 17.25 C 29.08375 21.01 26.97875 24.28875 25.71875 26.59375 L 25.71875 28.625 L 32.59375 28.625 L 32.59375 31.34375 L 34.6875 31.34375 L 34.6875 28.625 L 36.65625 28.625 L 36.65625 26.65625 L 34.6875 26.65625 L 34.6875 17.25 L 31.59375 17.25 z M 32.5 19.1875 L 32.625 19.1875 L 32.625 26.71875 L 27.8125 26.71875 L 27.8125 26.5625 C 29.4725 23.6815 31.104 21.2085 32.5 19.1875 z M 6 24 C 5.4477153 24 5 24.447715 5 25 C 5 25.552285 5.4477153 26 6 26 C 6.5522847 26 7 25.552285 7 25 C 7 24.447715 6.5522847 24 6 24 z M 44 24 C 43.447715 24 43 24.447715 43 25 C 43 25.552285 43.447715 26 44 26 C 44.552285 26 45 25.552285 45 25 C 45 24.447715 44.552285 24 44 24 z M 8.53125 33.5 C 7.9789653 33.5 7.53125 33.947715 7.53125 34.5 C 7.53125 35.052285 7.9789653 35.5 8.53125 35.5 C 9.0835348 35.5 9.53125 35.052285 9.53125 34.5 C 9.53125 33.947715 9.0835348 33.5 8.53125 33.5 z M 41.46875 33.5 C 40.916465 33.5 40.46875 33.947715 40.46875 34.5 C 40.46875 35.052285 40.916465 35.5 41.46875 35.5 C 42.021034 35.5 42.46875 35.052285 42.46875 34.5 C 42.46875 33.947715 42.021034 33.5 41.46875 33.5 z M 15.5 40.46875 C 14.947715 40.46875 14.5 40.916465 14.5 41.46875 C 14.5 42.021034 14.947715 42.46875 15.5 42.46875 C 16.052285 42.46875 16.5 42.021034 16.5 41.46875 C 16.5 40.916465 16.052285 40.46875 15.5 40.46875 z M 34.5 40.46875 C 33.947715 40.46875 33.5 40.916465 33.5 41.46875 C 33.5 42.021034 33.947715 42.46875 34.5 42.46875 C 35.052285 42.46875 35.5 42.021034 35.5 41.46875 C 35.5 40.916465 35.052285 40.46875 34.5 40.46875 z M 25 43 C 24.447715 43 24 43.447715 24 44 C 24 44.552285 24.447715 45 25 45 C 25.552285 45 26 44.552285 26 44 C 26 43.447715 25.552285 43 25 43 z"/>
</svg>
