<svg xmlns="http://www.w3.org/2000/svg" viewBox="0 0 16.933 16.933"><path d="m 1.3224467,0.52918608 c -0.43517002,0 -0.79325002,0.35187 -0.79325002,0.79322992 v 7.6739 c 0,0.4444598 0.35808,0.79272 0.79325002,0.79272 h 8.02754 c 0.4088,0.33024 0.9328403,0.52916 1.4976003,0.52916 1.32225,0 2.38129,-1.0687301 2.38129,-2.3807199 0,-0.4242401 -0.11084,-0.8244703 -0.30644,-1.1699502 l 0.49403,-0.4940199 c 0.16753,-0.1679401 0.0464,-0.45984 -0.19586,-0.45217 -0.0686,0.00201 -0.12946,0.0278 -0.17725,0.077 l -0.43564,0.43408 C 12.171857,5.8546258 11.543157,5.5567561 10.847587,5.5567561 V 1.322416 c 0,-0.43515994 -0.35136,-0.79322992 -0.79272,-0.79322992 z m 0,0.52967992 h 2.90994 v 2.3807199 c -10e-5,0.2045301 0.2219799,0.3318402 0.39843,0.2284101 l 1.0588699,-0.60926 1.0583499,0.60926 C 6.9241466,3.7696259 7.1443265,3.642895 7.1449166,3.4395859 V 1.058866 h 2.9099504 c 0.15115,0 0.26355,0.11963 0.26355,0.26355 v 4.29377 c -1.0662603,0.24385 -1.8516003,1.19152 -1.8516003,2.3212901 0,0.4889298 0.1468699,0.9437298 0.4010199,1.3223898 H 1.3224467 c -0.14496,0 -0.26356,-0.11239 -0.26356,-0.2635499 v -7.6739 c 0,-0.14599 0.1124,-0.26355 0.26356,-0.26355 z m 3.4391199,0 h 1.85366 v 1.92339 L 5.8204267,2.525436 c -0.0816,-0.0469 -0.18195,-0.0469 -0.2635501,0 l -0.79531,0.45682 z m 6.0860204,5.0270498 c 0.5529,0 1.04629,0.2410701 1.38495,0.6227001 L 10.847587,8.0919858 9.9768267,7.2207259 c -0.25735,-0.2387399 -0.61289,0.1136901 -0.37517,0.3751699 l 1.0588603,1.0583301 c 0.10339,0.1036299 0.27127,0.1036299 0.37466,0 l 1.49347,-1.4929299 c 0.10872,0.23607 0.17054,0.49828 0.17054,0.7761801 0,1.0260099 -0.8297,1.8515599 -1.8516,1.8515599 -1.0260203,0 -1.8510703,-0.8307202 -1.8510703,-1.8515599 0,-1.0198002 0.82505,-1.8515603 1.8510703,-1.8515603 z M 2.1167267,6.6140459 c -0.13249,0 -0.26492,0.0883 -0.26459,0.2651 v 1.32291 c -6.509e-4,0.3535202 0.52982,0.3535202 0.52917,0 v -1.32291 c 3.3e-4,-0.1767599 -0.13209,-0.2651 -0.26458,-0.2651 z m 1.0583498,0 c -0.1324898,0 -0.2649198,0.0883 -0.2645898,0.2651 v 1.32291 c -6.588e-4,0.3535202 0.5298201,0.3535202 0.52917,0 v -1.32291 c 3.175e-4,-0.1767599 -0.1320901,-0.2651 -0.2645802,-0.2651 z m 1.0583503,0 c -0.1324901,0 -0.2649201,0.0883 -0.2645902,0.2651 v 1.32291 c -6.615e-4,0.3535202 0.5298202,0.3535202 0.5291701,0 v -1.32291 c 3.175e-4,-0.1767599 -0.1320901,-0.2651 -0.2645799,-0.2651 z m 1.1435998,7.7979011 c 0.71267,0.47978 1.46285,0.96266 2.1172201,1.33221 0.6543699,0.36955 1.23756,0.64207 1.60148,0.6599 0.005,1.2e-4 0.009,1.2e-4 0.0139,0 0.52773,0 1.2111803,-0.18827 1.8164503,-0.36896 0.30264,-0.0904 0.58836,-0.18054 0.82219,-0.24598 0.23383,-0.0654 0.40201,-0.1018 0.48421,-0.1018 h 1.00099 c 0.0246,0.39902 0.34159,0.71674 0.7395,0.71674 h 1.38289 c 0.4147,0 0.71559,-0.34159 0.744149,-0.7462 l 0.302312,-4.29067 c 0.0306,-0.43469 -0.32946,-0.78341 -0.74415,-0.78341 h -1.6852 c -0.42354,0 -0.74415,0.35211 -0.74415,0.76584 v 0.0274 h -1.02372 l -1.17359,-0.5023 c -0.0327,-0.014 -0.0683,-0.0211 -0.10388,-0.0212 H 7.1252177 c -0.5310499,0 -0.9773599,0.3777 -1.0609302,0.88625 L 3.8809267,10.474735 c -0.21028,-0.12194 -0.4436401,-0.17217 -0.6702299,-0.15656 -0.07547,0.005 -0.1503301,0.01762 -0.2232101,0.03722 -0.29153,0.0784 -0.55254,0.269671 -0.71418,0.550871 -0.32544,0.56617 -0.099477,1.261851 0.41832,1.60453 0,0 1.26008,0.94158 2.6853999,1.901151 z M 3.2458217,10.845282 c 0.1244651,-0.009 0.2536352,0.01792 0.371565,0.08632 l 2.57301,1.49292 c 0.1861799,0.3213 0.5354101,0.54053 0.9348399,0.54053 h 2.6246901 c 0.3528703,0 0.3528703,-0.52968 0,-0.52968 H 7.1252366 c -0.3137699,0 -0.5488099,-0.2453 -0.5488099,-0.52503 0,-0.27972 0.23504,-0.52761 0.5488099,-0.52761 h 3.7481504 l 1.17566,0.50178 c 0.0327,0.014 0.0678,0.0216 0.10335,0.0217 h 1.07644 v 3.25198 h -0.99634 c -0.16114,0 -0.38016,0.0519 -0.62684,0.12092 -0.24669,0.069 -0.53193,0.15908 -0.82994,0.24804 -0.59319,0.17708 -1.2164503,0.34572 -1.6583203,0.34572 -0.23787,-0.0133 -0.7295402,-0.232919 -1.3611799,-0.589629 -0.6334901,-0.357761 -1.3760201,-0.835171 -2.08207,-1.310511 -1.4121101,-0.95066 -2.6916201,-1.90324 -2.6916201,-1.90324 -0.3106604,-0.226269 -0.4275,-0.59066 -0.24986,-0.899703 0.11103,-0.193152 0.30573,-0.309192 0.513155,-0.324507 z m 10.7271653,0.268215 h 1.6852 c 0.11771,0 0.22542,0.0976 0.21704,0.21652 l -0.30283,4.28912 c -0.0115,0.16364 -0.11343,0.2558 -0.21652,0.2558 h -1.38289 c -0.11093,0 -0.21497,-0.0949 -0.21497,-0.23616 v -4.28912 c 0,-0.14129 0.10197,-0.23616 0.21497,-0.23616 z m 0.80462,3.70311 c -0.146128,-10e-7 -0.264589,0.118455 -0.26459,0.26458 1e-6,0.146125 0.118462,0.264581 0.26459,0.26458 0.146124,-4e-6 0.264579,-0.118459 0.26458,-0.26458 -1e-6,-0.146121 -0.118456,-0.264576 -0.26458,-0.26458 z" color="#000" font-family="sans-serif" font-weight="400" overflow="visible" style="line-height:normal;font-variant-ligatures:normal;font-variant-position:normal;font-variant-caps:normal;font-variant-numeric:normal;font-variant-alternates:normal;font-feature-settings:normal;text-indent:0;text-align:start;text-decoration-line:none;text-decoration-style:solid;text-decoration-color:#000;text-transform:none;text-orientation:mixed;shape-padding:0;isolation:auto;mix-blend-mode:normal"/></svg>